<?xml version="1.0" encoding="UTF-8"?>
<svg version="1.1" xmlns="http://www.w3.org/2000/svg" width="373" height="127">
<path d="M0 0 C1.66165207 1.66165207 1.11959725 3.6651603 1.12442017 5.88401794 C1.12082489 6.58172806 1.11722961 7.27943817 1.11352539 7.99829102 C1.11367142 8.72995483 1.11381744 9.46161865 1.1139679 10.2154541 C1.11326867 12.64496784 1.10547585 15.07440583 1.09765625 17.50390625 C1.0957921 19.18399514 1.09436819 20.86408457 1.09336853 22.54417419 C1.08954307 26.97473643 1.07971256 31.4052661 1.06866455 35.83581543 C1.05845103 40.35342976 1.05387104 44.87104934 1.04882812 49.38867188 C1.03809031 58.25912893 1.02101356 67.12956176 1 76 C1.92485703 75.99777939 2.84971405 75.99555878 3.80259705 75.99327087 C12.49952587 75.97327087 21.19644702 75.95802736 29.89339352 75.94818783 C34.36505549 75.94295926 38.83669853 75.93586211 43.30834961 75.92456055 C47.62011973 75.91373071 51.93187159 75.90772296 56.24365425 75.90512276 C57.89236298 75.90326868 59.54107066 75.8996484 61.18977165 75.89426994 C63.49103872 75.88705822 65.7922294 75.88600911 68.09350586 75.88647461 C70.06207802 75.88314369 70.06207802 75.88314369 72.07041931 75.87974548 C75 76 75 76 76 77 C76.09823937 78.66429051 76.12973631 80.33281931 76.125 82 C76.12886719 83.36125 76.12886719 83.36125 76.1328125 84.75 C76 87 76 87 75 88 C72.35261911 88.09511266 69.73140999 88.12555635 67.08374023 88.11352539 C66.25454071 88.11367142 65.42534119 88.11381744 64.5710144 88.1139679 C61.81684802 88.11326851 59.06274839 88.10547493 56.30859375 88.09765625 C54.40430234 88.09579216 52.50001045 88.09436822 50.59571838 88.09336853 C45.57332037 88.08954263 40.55095108 88.07971173 35.52856445 88.06866455 C30.4077188 88.05845198 25.28686852 88.05387124 20.16601562 88.04882812 C10.11066443 88.03808953 0.0553346 88.02101224 -10 88 C-11.56998834 84.86002332 -11.12944545 81.50823639 -11.11352539 78.06201172 C-11.11367142 77.24241974 -11.11381744 76.42282776 -11.1139679 75.57839966 C-11.11326974 72.8621356 -11.10548188 70.14593962 -11.09765625 67.4296875 C-11.09579173 65.54924558 -11.09436798 63.66880317 -11.09336853 61.7883606 C-11.08954607 56.83338078 -11.07971808 51.87843017 -11.06866455 46.92346191 C-11.05844461 41.86955155 -11.05386966 36.81563647 -11.04882812 31.76171875 C-11.03809559 21.84113299 -11.0210224 11.92056892 -11 2 C-7.10683745 0.32488074 -4.26692528 -0.29092672 0 0 Z " fill="#40B3F3" transform="translate(26,33)"/>
<path d="M0 0 C28.05 0 56.1 0 85 0 C86.03359748 4.13438993 86.13343343 7.85533103 86.11352539 12.07324219 C86.11367142 12.88337265 86.11381744 13.69350311 86.1139679 14.52818298 C86.11327224 17.20110773 86.10549606 19.87396245 86.09765625 22.546875 C86.09579084 24.40203819 86.09436752 26.25720187 86.09336853 28.11236572 C86.08955305 32.99169274 86.07973102 37.87098993 86.06866455 42.75030518 C86.05842961 47.7306681 86.05386644 52.71103584 86.04882812 57.69140625 C86.0381079 67.4609506 86.02104309 77.23047282 86 87 C82.49852959 88.1671568 79.67329964 88.13357453 76 88 C75.34 87.67 74.68 87.34 74 87 C74 62.25 74 37.5 74 12 C49.69151731 12.03961474 49.69151731 12.03961474 25.38305664 12.09008789 C20.69030762 12.09460449 20.69030762 12.09460449 18.49607849 12.09544373 C16.95778617 12.09698313 15.41949508 12.10050799 13.88121033 12.10557556 C11.55628348 12.11285418 9.23143061 12.11390738 6.90649414 12.11352539 C4.93792198 12.11685631 4.93792198 12.11685631 2.92958069 12.12025452 C0 12 0 12 -1 11 C-1.15031917 7.01654197 -0.97229218 3.88916872 0 0 Z " fill="#F89252" transform="translate(267,3)"/>
<path d="M0 0 C5.45659686 4.20099285 9.05460752 8.6986395 10.81640625 15.3984375 C11.81977415 24.31256912 11.35204121 32.08924959 5.81640625 39.3984375 C1.01427512 44.40935694 -4.28815529 46.84539039 -11.18359375 47.3984375 C-17.44231417 47.47320037 -23.0915556 46.13974553 -28.18359375 42.3984375 C-33.8814693 36.47315228 -36.45768271 30.35055175 -36.55859375 22.0859375 C-36.41250321 14.95184951 -35.18485784 9.72537067 -30.34765625 4.36328125 C-22.1841397 -3.25287308 -10.08502732 -5.93732297 0 0 Z M-22.18359375 10.3984375 C-25.83901956 15.62906324 -26.89512372 20.09631494 -26.18359375 26.3984375 C-24.48039962 31.05981091 -22.45421709 33.8360635 -18.18359375 36.3984375 C-14.02840928 37.65186092 -11.05240721 37.69918062 -6.93359375 36.2734375 C-3.40187976 33.86545069 -1.0937811 31.2188122 0.81640625 27.3984375 C1.37033158 21.47569743 1.38130173 16.38929118 -2.18359375 11.3984375 C-5.59717241 8.30996157 -8.22065212 7.13412412 -12.74609375 6.9609375 C-16.67786036 7.17863599 -19.1960518 7.66697058 -22.18359375 10.3984375 Z " fill="#3F3F3F" transform="translate(273.18359375,36.6015625)"/>
<path d="M0 0 C3.465 -0.0825 6.93 -0.165 10.5 -0.25 C12.11358398 -0.30462402 12.11358398 -0.30462402 13.75976562 -0.36035156 C20.06228329 -0.43244678 24.75691015 0.36754881 30 4 C33.10041207 7.19729995 33.24716835 10.20311883 33.4375 14.5 C33.34779242 18.41019508 33.13480488 19.78515472 31 23.1875 C30.01 24.0846875 30.01 24.0846875 29 25 C29.639375 25.61875 30.27875 26.2375 30.9375 26.875 C34.32892106 30.3691914 34.34540339 32.97600992 34.27734375 37.6796875 C33.84203773 41.32154351 32.43146136 43.31259534 30 46 C25.52061913 48.69152929 21.87881098 49.46494385 16.6875 49.75 C15.45386719 49.82734375 14.22023438 49.9046875 12.94921875 49.984375 C11.97597656 49.98953125 11.00273438 49.9946875 10 50 C9 49 9 49 8.90234375 46.71484375 C8.95117188 42.85742188 8.95117188 42.85742188 9 39 C13.62 38.67 18.24 38.34 23 38 C23 36.35 23 34.7 23 33 C19.86882433 30.91254955 18.93053776 30.72346004 15.33203125 30.5859375 C14.52741455 30.55032715 13.72279785 30.5147168 12.89379883 30.47802734 C11.87697021 30.44402832 10.8601416 30.4100293 9.8125 30.375 C6.574375 30.25125 3.33625 30.1275 0 30 C0 20.1 0 10.2 0 0 Z M10 10 C10 13.3 10 16.6 10 20 C15.39449293 20.27429625 18.51925805 20.36055646 23 17 C22.72965366 14.56282742 22.72965366 14.56282742 22 12 C17.7975546 9.19836974 14.99895065 9.85510288 10 10 Z " fill="#3F3F3F" transform="translate(43,34)"/>
<path d="M0 0 C7.92 0 15.84 0 24 0 C24 3.3 24 6.6 24 10 C19.38 10 14.76 10 10 10 C10.33 12.97 10.66 15.94 11 19 C17.27 19.33 23.54 19.66 30 20 C30 22.97 30 25.94 30 29 C29 30 29 30 27.14233398 30.11352539 C26.35157471 30.10828857 25.56081543 30.10305176 24.74609375 30.09765625 C23.89208984 30.09443359 23.03808594 30.09121094 22.15820312 30.08789062 C20.81145508 30.07532227 20.81145508 30.07532227 19.4375 30.0625 C18.53580078 30.05798828 17.63410156 30.05347656 16.70507812 30.04882812 C14.47002411 30.03700244 12.23500398 30.01906638 10 30 C10 32.97 10 35.94 10 39 C11.39025391 38.98259766 11.39025391 38.98259766 12.80859375 38.96484375 C14.00613281 38.95582031 15.20367187 38.94679687 16.4375 38.9375 C17.63246094 38.92589844 18.82742187 38.91429687 20.05859375 38.90234375 C23 39 23 39 24 40 C24.0979057 41.49738124 24.12974864 42.99942892 24.125 44.5 C24.12886719 45.72203125 24.12886719 45.72203125 24.1328125 46.96875 C24 49 24 49 23 50 C21.37742456 50.0991657 19.75060169 50.13079777 18.125 50.1328125 C17.14015625 50.13410156 16.1553125 50.13539062 15.140625 50.13671875 C14.10421875 50.13285156 13.0678125 50.12898438 12 50.125 C10.44539062 50.13080078 10.44539062 50.13080078 8.859375 50.13671875 C7.87453125 50.13542969 6.8896875 50.13414063 5.875 50.1328125 C4.96492187 50.13168457 4.05484375 50.13055664 3.1171875 50.12939453 C1 50 1 50 0 49 C-0.09319449 47.4651703 -0.117458 45.92607918 -0.11352539 44.38842773 C-0.11344986 43.40748642 -0.11337433 42.4265451 -0.11329651 41.4158783 C-0.10813522 40.3492244 -0.10297394 39.2825705 -0.09765625 38.18359375 C-0.0962413 37.0974025 -0.09482635 36.01121124 -0.09336853 34.8921051 C-0.08775048 31.40720925 -0.07519492 27.92237658 -0.0625 24.4375 C-0.05748733 22.08138113 -0.05292402 19.72526126 -0.04882812 17.36914062 C-0.03862411 11.57938289 -0.01905224 5.78976255 0 0 Z " fill="#3F3F3F" transform="translate(165,34)"/>
<path d="M0 0 C7.92 0 15.84 0 24 0 C24 3.3 24 6.6 24 10 C19.38 10 14.76 10 10 10 C10.33 12.97 10.66 15.94 11 19 C12.93166016 19.09087891 12.93166016 19.09087891 14.90234375 19.18359375 C16.58074159 19.26798247 18.25912636 19.3526313 19.9375 19.4375 C20.78763672 19.47681641 21.63777344 19.51613281 22.51367188 19.55664062 C23.32255859 19.59853516 24.13144531 19.64042969 24.96484375 19.68359375 C26.08814087 19.73858032 26.08814087 19.73858032 27.23413086 19.79467773 C29 20 29 20 30 21 C30.23728814 27.52542373 30.23728814 27.52542373 29 30 C22.73 30 16.46 30 10 30 C10 32.97 10 35.94 10 39 C11.39025391 38.98259766 11.39025391 38.98259766 12.80859375 38.96484375 C14.00613281 38.95582031 15.20367187 38.94679687 16.4375 38.9375 C17.63246094 38.92589844 18.82742187 38.91429687 20.05859375 38.90234375 C23 39 23 39 24 40 C24.0979057 41.49738124 24.12974864 42.99942892 24.125 44.5 C24.12886719 45.72203125 24.12886719 45.72203125 24.1328125 46.96875 C24 49 24 49 23 50 C21.37742456 50.0991657 19.75060169 50.13079777 18.125 50.1328125 C17.14015625 50.13410156 16.1553125 50.13539062 15.140625 50.13671875 C14.10421875 50.13285156 13.0678125 50.12898438 12 50.125 C10.44539063 50.13080078 10.44539063 50.13080078 8.859375 50.13671875 C7.87453125 50.13542969 6.8896875 50.13414063 5.875 50.1328125 C4.96492188 50.13168457 4.05484375 50.13055664 3.1171875 50.12939453 C1 50 1 50 0 49 C-0.09319449 47.4651703 -0.117458 45.92607918 -0.11352539 44.38842773 C-0.11344986 43.40748642 -0.11337433 42.4265451 -0.11329651 41.4158783 C-0.10813522 40.3492244 -0.10297394 39.2825705 -0.09765625 38.18359375 C-0.0962413 37.0974025 -0.09482635 36.01121124 -0.09336853 34.8921051 C-0.08775048 31.40720925 -0.07519492 27.92237658 -0.0625 24.4375 C-0.05748733 22.08138113 -0.05292402 19.72526126 -0.04882812 17.36914062 C-0.03862411 11.57938289 -0.01905224 5.78976255 0 0 Z " fill="#3D3D3D" transform="translate(85,34)"/>
<path d="M0 0 C3.3 0 6.6 0 10 0 C13.23244241 7.59094058 16.25792848 15.21803166 19 23 C19.34933594 22.15695313 19.69867188 21.31390625 20.05859375 20.4453125 C20.51363281 19.34960938 20.96867187 18.25390625 21.4375 17.125 C21.88996094 16.03445312 22.34242188 14.94390625 22.80859375 13.8203125 C23.49543463 12.19441376 24.21065887 10.57868226 25 9 C28.3 9 31.6 9 35 9 C33.59944623 16.86397892 30.85276457 24.06363163 27.88696289 31.44140625 C27.05513059 33.5184006 26.24305934 35.60245894 25.43164062 37.6875 C24.90482003 39.0108847 24.37686672 40.33381918 23.84765625 41.65625 C23.1362146 43.44772461 23.1362146 43.44772461 22.41040039 45.27539062 C21 48 21 48 18 49 C7.26935677 23.0056654 7.26935677 23.0056654 2.8125 11 C2.52173584 10.22487061 2.23097168 9.44974121 1.93139648 8.65112305 C0.82816324 5.63511681 0 3.23784067 0 0 Z " fill="#3F3F3F" transform="translate(122,34)"/>
<path d="M0 0 C9.57 0 19.14 0 29 0 C28.25337056 5.22640607 27.68569491 8.31830939 25.71484375 12.93359375 C25.04291992 14.52397461 25.04291992 14.52397461 24.35742188 16.14648438 C23.88884766 17.23251953 23.42027344 18.31855469 22.9375 19.4375 C22.46505859 20.55060547 21.99261719 21.66371094 21.50585938 22.81054688 C20.34463889 25.54352033 19.17331691 28.27219789 18 31 C14.37 31 10.74 31 7 31 C7.66422298 27.67888508 8.23707856 25.08168801 9.41015625 22.01171875 C9.67763672 21.30595703 9.94511719 20.60019531 10.22070312 19.87304688 C10.49849609 19.15181641 10.77628906 18.43058594 11.0625 17.6875 C11.48499023 16.57665039 11.48499023 16.57665039 11.91601562 15.44335938 C12.60718575 13.62757345 13.30311689 11.81360101 14 10 C9.38 10 4.76 10 0 10 C0 6.7 0 3.4 0 0 Z " fill="#3F3F3F" transform="translate(293,34)"/>
<path d="M0 0 C3.3 0 6.6 0 10 0 C10 10.23 10 20.46 10 31 C6.7 31 3.4 31 0 31 C0 20.77 0 10.54 0 0 Z " fill="#3F3F3F" transform="translate(202,34)"/>
<path d="M0 0 C4.31248609 -0.02886537 8.62494762 -0.04675255 12.9375 -0.0625 C14.78504883 -0.07506836 14.78504883 -0.07506836 16.66992188 -0.08789062 C17.83974609 -0.09111328 19.00957031 -0.09433594 20.21484375 -0.09765625 C21.84087524 -0.10551147 21.84087524 -0.10551147 23.49975586 -0.11352539 C26 0 26 0 27 1 C27 3.97 27 6.94 27 10 C17.1 10.33 7.2 10.66 -3 11 C-1.875 3.125 -1.875 3.125 0 0 Z " fill="#3C3C3C" transform="translate(296,73)"/>
<path d="M0 0 C4.47915328 -0.02886338 8.95828291 -0.04675187 13.4375 -0.0625 C14.71689453 -0.07087891 15.99628906 -0.07925781 17.31445312 -0.08789062 C19.13686523 -0.09272461 19.13686523 -0.09272461 20.99609375 -0.09765625 C22.12200928 -0.10289307 23.2479248 -0.10812988 24.40795898 -0.11352539 C27 0 27 0 28 1 C28.07179964 2.51928038 28.08392007 4.04167482 28.0625 5.5625 C28.05347656 6.38878906 28.04445312 7.21507813 28.03515625 8.06640625 C28.02355469 8.70449219 28.01195312 9.34257813 28 10 C24.90235347 11.03254884 22.73851213 11.12908904 19.4921875 11.1328125 C18.42355469 11.13410156 17.35492188 11.13539062 16.25390625 11.13671875 C15.13886719 11.13285156 14.02382812 11.12898438 12.875 11.125 C11.75222656 11.12886719 10.62945312 11.13273437 9.47265625 11.13671875 C7.87357422 11.13478516 7.87357422 11.13478516 6.2421875 11.1328125 C5.2610498 11.13168457 4.27991211 11.13055664 3.26904297 11.12939453 C1 11 1 11 0 10 C-0.07205511 8.31391034 -0.08386068 6.62499341 -0.0625 4.9375 C-0.05347656 4.01839844 -0.04445312 3.09929687 -0.03515625 2.15234375 C-0.02355469 1.44207031 -0.01195312 0.73179688 0 0 Z " fill="#3D3D3D" transform="translate(202,73)"/>
<path d="M0 0 C28.05 0 56.1 0 85 0 C86 4 86 4 85 6 C84.505 4.02 84.505 4.02 84 2 C56.28 2 28.56 2 0 2 C0 1.34 0 0.68 0 0 Z " fill="#F19862" transform="translate(267,3)"/>
<path d="M0 0 C3.96 0 7.92 0 12 0 C11.67 1.32 11.34 2.64 11 4 C10.01 4 9.02 4 8 4 C8.57344937 6.86724686 8.8614515 7.8614515 11 10 C9.35492782 10.19406478 7.70890406 10.38007935 6.0625 10.5625 C4.68771484 10.71912109 4.68771484 10.71912109 3.28515625 10.87890625 C2.53105469 10.91886719 1.77695312 10.95882812 1 11 C0 10 0 10 -0.09765625 7.71484375 C-0.06510417 5.14322917 -0.03255208 2.57161458 0 0 Z " fill="#363636" transform="translate(52,73)"/>
<path d="M0 0 C0.969375 0.165 1.93875 0.33 2.9375 0.5 C4.9375 3.5 4.9375 3.5 4.6875 6.0625 C3.9375 8.5 3.9375 8.5 1.9375 10.5 C-0.5 10.9375 -0.5 10.9375 -3.0625 10.5 C-4.875 8 -4.875 8 -6.0625 5.5 C-3.87197137 0.63215859 -3.87197137 0.63215859 0 0 Z " fill="#3E3E3E" transform="translate(261.0625,53.5)"/>
<path d="M0 0 C18.81 0 37.62 0 57 0 C58 4 58 4 57 6 C56.505 4.02 56.505 4.02 56 2 C37.52 1.67 19.04 1.34 0 1 C0 0.67 0 0.34 0 0 Z " fill="#DE8180" transform="translate(295,3)"/>
<path d="M0 0 C0.66 0.99 1.32 1.98 2 3 C2.99 2.67 3.98 2.34 5 2 C5.66 3.32 6.32 4.64 7 6 C3.7 6 0.4 6 -3 6 C-3 4.68 -3 3.36 -3 2 C-2.01 1.34 -1.02 0.68 0 0 Z " fill="#292929" transform="translate(296,78)"/>
<path d="M0 0 C0.5625 1.9375 0.5625 1.9375 1 4 C0 5 0 5 -2.28515625 5.09765625 C-3.65994141 5.08025391 -3.65994141 5.08025391 -5.0625 5.0625 C-5.98160156 5.05347656 -6.90070313 5.04445313 -7.84765625 5.03515625 C-8.55792969 5.02355469 -9.26820313 5.01195313 -10 5 C-10 4.67 -10 4.34 -10 4 C-9.36191406 3.79503906 -8.72382813 3.59007813 -8.06640625 3.37890625 C-7.24011719 3.10949219 -6.41382813 2.84007813 -5.5625 2.5625 C-4.73878906 2.29566406 -3.91507813 2.02882813 -3.06640625 1.75390625 C-1.03780412 1.17844506 -1.03780412 1.17844506 0 0 Z " fill="#1F1F1F" transform="translate(188,79)"/>
<path d="M0 0 C3.3 0 6.6 0 10 0 C11 4 11 4 10 6 C9.67 4.68 9.34 3.36 9 2 C6.03 1.67 3.06 1.34 0 1 C0 0.67 0 0.34 0 0 Z " fill="#E6AB75" transform="translate(342,3)"/>
<path d="" fill="#000000" transform="translate(0,0)"/>
<path d="" fill="#000000" transform="translate(0,0)"/>
</svg>
